<?xml version="1.0" encoding="utf-8"?>
<!-- Generator: Adobe Illustrator 16.0.0, SVG Export Plug-In . SVG Version: 6.00 Build 0)  -->
<!DOCTYPE svg PUBLIC "-//W3C//DTD SVG 1.1//EN" "http://www.w3.org/Graphics/SVG/1.1/DTD/svg11.dtd">
<svg version="1.1" id="Layer_1" xmlns="http://www.w3.org/2000/svg" xmlns:xlink="http://www.w3.org/1999/xlink" x="0px" y="0px"
	 width="84.287px" height="22.028px" viewBox="0 -2.496 84.287 22.028" enable-background="new 0 -2.496 84.287 22.028"
	 xml:space="preserve">
<g>
	<g>
		<g>
			
				<linearGradient id="SVGID_1_" gradientUnits="userSpaceOnUse" x1="-105.3179" y1="-99.4385" x2="-92.0444" y2="-99.4385" gradientTransform="matrix(1 0 0 1 165.6401 108.0547)">
				<stop  offset="0" style="stop-color:#C63130"/>
				<stop  offset="1" style="stop-color:#EE422E"/>
			</linearGradient>
			<path fill="url(#SVGID_1_)" d="M64.003-1.657l9.134,8.911c0.551,0.681,0.671,2.072,0,2.737l-9.134,8.815
				c-0.822,0.823-1.914,1.022-2.729,0.194l-0.342-0.324c-0.715-0.727-0.854-1.522-0.136-2.182c2.256-2.148,4.533-4.322,6.783-6.504
				c0.75-0.757,0.75-2.012,0-2.737c-2.25-2.212-4.527-4.391-6.783-6.598c-0.719-0.596-0.579-1.454,0.136-2.118l0.342-0.326
				C62.089-2.584,63.181-2.383,64.003-1.657L64.003-1.657z"/>
		</g>
		<g>
			
				<linearGradient id="SVGID_2_" gradientUnits="userSpaceOnUse" x1="517.4648" y1="861.0977" x2="526.7119" y2="861.0977" gradientTransform="matrix(0.0924 0.9345 -0.9323 -0.0606 834.218 -434.0865)">
				<stop  offset="0" style="stop-color:#C63130"/>
				<stop  offset="1" style="stop-color:#EE422E"/>
			</linearGradient>
			<path fill="url(#SVGID_2_)" d="M83.836-1.7c0.658,0.581,0.588,1.587-0.155,2.251l-5.217,4.649
				c-0.745,0.662-1.888,0.723-2.537,0.144l-0.446-0.4c-0.654-0.579-0.591-1.587,0.154-2.252l5.22-4.646
				c0.747-0.663,1.88-0.727,2.538-0.143L83.836-1.7z"/>
			
				<linearGradient id="SVGID_3_" gradientUnits="userSpaceOnUse" x1="1500.7666" y1="221.1699" x2="1510.7217" y2="221.1699" gradientTransform="matrix(-0.9345 0.0924 0.0606 -0.9323 1473.2256 82.2434)">
				<stop  offset="0" style="stop-color:#C63130"/>
				<stop  offset="1" style="stop-color:#EE422E"/>
			</linearGradient>
			<path fill="url(#SVGID_3_)" d="M83.123,18.76c-0.633,0.564-1.726,0.504-2.446-0.133l-5.056-4.476
				c-0.714-0.638-0.783-1.608-0.153-2.176l0.425-0.38c0.636-0.564,1.734-0.502,2.458,0.132l5.051,4.477
				c0.714,0.634,0.779,1.608,0.149,2.176L83.123,18.76z"/>
		</g>
	</g>
	<g>
		<path fill="#FFFFFF" d="M45.431,1.149c-0.182,0.422-0.34,0.796-0.503,1.168c-1.824,4.148-3.645,8.298-5.468,12.451
			c-0.048,0.105-0.093,0.213-0.145,0.317c-0.288,0.559-0.736,0.867-1.377,0.86c-0.639-0.009-1.092-0.322-1.352-0.893
			c-0.339-0.745-0.66-1.494-0.987-2.24c-1.646-3.745-3.288-7.492-4.929-11.236c-0.056-0.127-0.133-0.247-0.147-0.383
			c0.091-0.072,0.187-0.042,0.274-0.042c0.87-0.004,1.739,0.012,2.606-0.009c0.274-0.007,0.383,0.1,0.482,0.33
			c1.286,2.949,2.583,5.891,3.874,8.835c0.058,0.128,0.116,0.256,0.173,0.387c0.125-0.065,0.139-0.189,0.183-0.29
			c1.315-2.986,2.628-5.975,3.933-8.964c0.092-0.21,0.185-0.302,0.429-0.298C43.44,1.158,44.401,1.149,45.431,1.149z"/>
		<path fill="#FFFFFF" d="M48.822,9.965c3.076,0,6.151,0,9.229,0c0.127,0,0.255,0.005,0.382-0.002
			c0.864-0.049,1.45-0.669,1.454-1.537c0.003-0.357-0.032-0.715-0.088-1.069c-0.625-3.975-4.363-6.854-8.596-6.086
			c-3.929,0.71-6.535,4.441-5.902,8.391c0.626,3.923,4.295,6.652,8.222,6.095c2.522-0.36,4.365-1.711,5.57-3.948
			c0.057-0.105,0.134-0.215,0.137-0.349c-0.109-0.06-0.227-0.029-0.337-0.029c-0.912-0.003-1.828,0.005-2.738-0.007
			c-0.224-0.002-0.38,0.062-0.549,0.219c-2.204,2.12-5.778,1.447-7.064-1.327c-0.047-0.099-0.164-0.351-0.092-0.351
			C48.571,9.965,48.699,9.965,48.822,9.965z M52.348,3.959c1.982-0.058,3.92,1.442,4.3,3.336c-2.737,0-5.477,0-8.214,0
			C48.694,5.627,50.604,4.005,52.348,3.959z"/>
		<path fill="#FFFFFF" d="M14.271,7.326c-0.002-1.408,0.104-3.57,0-4.982C14.199,1.324,12.898,0.764,12,1.235
			c-0.26,0.14-0.674,0.44-0.815,0.699c-0.69,1.302-1.425,3.315-2.026,4.647c-0.699,1.553-1.391,3.105-2.078,4.668
			C6.398,9.686,5.706,8.133,5.006,6.581C4.404,5.249,3.667,3.235,2.978,1.934C2.592,1.207,1.4,0.718,0.76,1.335
			C-0.198,2.261,0.01,4.262,0.039,5.45c0.039,1.779-0.014,3.044,0.001,4.786c0.007,0.819-0.018,0.976-0.018,1.792
			c0,0.58,0.018,2.599,0.31,3.313c0.276,0.684,1.132,0.695,1.719,0.428c0.83-0.374,0.622-1.452,0.629-2.17
			c0.021-1.936,0.025-3.873,0.019-5.812C3.123,8.733,3.556,9.662,4,10.633c0.387,0.847,0.713,1.721,1.113,2.558
			c0.337,0.707,0.756,2.052,1.477,2.238c0.294,0.078,0.673,0.108,1.052-0.045c0.38-0.157,0.583-0.612,0.763-0.963
			c0.499-0.948,0.719-1.447,1.206-2.5c0.196-0.424,0.357-0.862,0.553-1.288c0.512-1.124,1.017-2.195,1.503-3.289
			c-0.008,1.024-0.031,2.044-0.021,3.106c0.008,0.857-0.044,1.719-0.034,2.581c0.011,0.762-0.074,1.722,0.295,2.421
			c0.327,0.618,1.095,0.578,1.678,0.316c0.83-0.374,0.622-1.452,0.629-2.17C14.238,11.474,14.282,9.451,14.271,7.326z"/>
		<path fill="#FFFFFF" d="M23.331,1c-4.151,0-7.519,3.366-7.519,7.52c0,4.153,3.368,7.519,7.519,7.519
			c4.155,0,7.521-3.366,7.521-7.519C30.852,4.365,27.485,1,23.331,1z M23.331,12.965c-2.456,0-4.447-1.991-4.447-4.446
			c0-2.458,1.991-4.449,4.447-4.449c2.457,0,4.448,1.991,4.448,4.449C27.778,10.974,25.788,12.965,23.331,12.965z"/>
	</g>
</g>
</svg>
