<?xml version="1.0" encoding="utf-8"?>
<!-- Generator: Adobe Illustrator 16.0.0, SVG Export Plug-In . SVG Version: 6.00 Build 0)  -->
<!DOCTYPE svg PUBLIC "-//W3C//DTD SVG 1.1//EN" "http://www.w3.org/Graphics/SVG/1.1/DTD/svg11.dtd">
<svg version="1.1" id="Layer_1" xmlns="http://www.w3.org/2000/svg" xmlns:xlink="http://www.w3.org/1999/xlink" x="0px" y="0px"
	 width="865.859px" height="226.42px" viewBox="31.692 361.913 865.859 226.42"
	 enable-background="new 31.692 361.913 865.859 226.42" xml:space="preserve">
<g display="none" opacity="0.7">
	
		<image display="inline" overflow="visible" enable-background="new    " width="3913" height="1250" xlink:href="B53DEECF.png"  transform="matrix(0.2398 0 0 0.2388 2.441406e-004 330.7202)">
	</image>
</g>
<g>
	<g>
		<g>
			
				<linearGradient id="SVGID_1_" gradientUnits="userSpaceOnUse" x1="659.5901" y1="507.9229" x2="796.0198" y2="507.9229" gradientTransform="matrix(1 0 0 -1 -8.3599 984.0547)">
				<stop  offset="0" style="stop-color:#C63130"/>
				<stop  offset="1" style="stop-color:#EE422E"/>
			</linearGradient>
			<path fill="url(#SVGID_1_)" d="M689.056,370.53l93.896,91.603c5.652,6.986,6.869,21.292,0,28.13l-93.896,90.605
				c-8.445,8.484-19.668,10.516-28.043,2.01l-3.512-3.334c-7.348-7.475-8.771-15.639-1.408-22.427
				c23.188-22.078,46.611-44.431,69.738-66.854c7.719-7.792,7.719-20.677,0-28.13c-23.127-22.743-46.551-45.14-69.738-67.835
				c-7.363-6.123-5.939-14.942,1.408-21.757l3.512-3.357C669.388,361.015,680.611,363.079,689.056,370.53L689.056,370.53z"/>
		</g>
		<g>
			
				<linearGradient id="SVGID_2_" gradientUnits="userSpaceOnUse" x1="888.0667" y1="178.7695" x2="983.1008" y2="178.7695" gradientTransform="matrix(0.0924 0.9345 0.9323 0.0606 596.8608 -480.8912)">
				<stop  offset="0" style="stop-color:#C63130"/>
				<stop  offset="1" style="stop-color:#EE422E"/>
			</linearGradient>
			<path fill="url(#SVGID_2_)" d="M892.906,370.089c6.783,5.974,6.043,16.322-1.598,23.156l-53.617,47.771
				c-7.646,6.81-19.395,7.443-26.076,1.467l-4.592-4.094c-6.719-5.953-6.057-16.32,1.582-23.136l53.66-47.765
				c7.676-6.811,19.33-7.477,26.082-1.467L892.906,370.089z"/>
			
				<linearGradient id="SVGID_3_" gradientUnits="userSpaceOnUse" x1="1327.4348" y1="474.96" x2="1429.759" y2="474.96" gradientTransform="matrix(-0.9345 0.0924 -0.0606 0.9323 2165.5293 -26.614)">
				<stop  offset="0" style="stop-color:#C63130"/>
				<stop  offset="1" style="stop-color:#EE422E"/>
			</linearGradient>
			<path fill="url(#SVGID_3_)" d="M885.585,580.407c-6.521,5.775-17.732,5.16-25.133-1.385l-51.969-45.995
				c-7.348-6.543-8.066-16.544-1.588-22.37l4.381-3.9c6.518-5.805,17.818-5.166,25.25,1.355l51.922,46.019
				c7.34,6.519,8.016,16.522,1.527,22.345L885.585,580.407z"/>
		</g>
	</g>
	<g>
		<path fill="#FFFFFF" d="M498.169,399.381c-1.877,4.331-3.502,8.174-5.174,11.994c-18.746,42.652-37.474,85.306-56.212,127.977
			c-0.498,1.092-0.947,2.209-1.484,3.277c-2.957,5.727-7.563,8.912-14.154,8.83c-6.568-0.08-11.217-3.313-13.893-9.176
			c-3.488-7.645-6.785-15.357-10.147-23.024c-16.912-38.487-33.795-76.997-50.669-115.5c-0.568-1.287-1.361-2.519-1.502-3.938
			c0.935-0.725,1.92-0.413,2.817-0.413c8.935-0.044,17.878,0.104,26.79-0.105c2.808-0.059,3.925,1.035,4.953,3.387
			c13.217,30.311,26.546,60.563,39.824,90.826c0.586,1.328,1.184,2.631,1.779,3.967c1.285-0.654,1.426-1.939,1.887-2.988
			c13.512-30.679,27-61.392,40.417-92.132c0.945-2.15,1.898-3.101,4.416-3.059C477.695,399.484,487.583,399.381,498.169,399.381z"/>
		<path fill="#FFFFFF" d="M533.021,489.995c31.611,0,63.229,0,94.854,0c1.314,0,2.631,0.043,3.926-0.025
			c8.896-0.494,14.92-6.874,14.963-15.785c0.033-3.687-0.328-7.357-0.91-10.994c-6.428-40.858-44.848-70.449-88.354-62.568
			c-40.379,7.307-67.168,45.669-60.666,86.272c6.438,40.322,44.143,68.363,84.502,62.625c25.93-3.691,44.879-17.572,57.27-40.563
			c0.564-1.111,1.354-2.209,1.391-3.592c-1.117-0.619-2.311-0.309-3.461-0.309c-9.375-0.021-18.771,0.039-28.15-0.064
			c-2.287-0.021-3.893,0.625-5.615,2.256c-22.678,21.79-59.422,14.858-72.633-13.645c-0.475-1.027-1.689-3.607-0.943-3.607
			C530.445,489.995,531.743,489.995,533.021,489.995z M569.263,428.254c20.371-0.58,40.283,14.834,44.199,34.297
			c-28.148,0-56.295,0-84.436,0C531.702,445.419,551.327,428.748,569.263,428.254z"/>
		<path fill="#FFFFFF" d="M178.885,462.86c-0.033-14.447,1.066-36.688,0-51.197c-0.742-10.484-14.123-16.242-23.353-11.393
			c-2.677,1.425-6.931,4.519-8.38,7.181c-7.1,13.372-14.645,34.067-20.832,47.753c-7.18,15.949-14.292,31.933-21.345,47.977
			c-7.019-16.042-14.137-32.028-21.33-47.977c-6.191-13.686-13.761-34.382-20.851-47.753c-3.967-7.47-16.216-12.503-22.799-6.153
			c-9.841,9.517-7.7,30.069-7.409,42.288c0.399,18.283-0.141,31.281,0.014,49.193c0.075,8.4-0.183,10.033-0.183,18.422
			c0,5.947,0.183,26.708,3.179,34.054c2.84,7.014,11.645,7.141,17.672,4.396c8.535-3.857,6.391-14.92,6.475-22.311
			c0.211-19.894,0.254-39.799,0.188-59.72c4.353,9.702,8.809,19.261,13.367,29.223c3.981,8.703,7.329,17.691,11.451,26.313
			c3.456,7.262,7.766,21.074,15.17,23.004c3.033,0.809,6.925,1.113,10.822-0.477c3.905-1.605,5.996-6.293,7.85-9.881
			c5.118-9.766,7.385-14.881,12.386-25.687c2.023-4.367,3.671-8.881,5.69-13.273c5.259-11.54,10.442-22.537,15.438-33.798
			c-0.08,10.538-0.31,21.028-0.207,31.923c0.08,8.844-0.455,17.684-0.352,26.558c0.108,7.828-0.756,17.678,3.038,24.865
			c3.362,6.354,11.263,5.963,17.25,3.26c8.526-3.857,6.38-14.92,6.46-22.311C178.529,505.515,178.993,484.707,178.885,462.86z"/>
		<path fill="#FFFFFF" d="M271.001,397.826c-42.678,0-77.29,34.605-77.29,77.297c0,42.691,34.612,77.297,77.29,77.297
			c42.7,0,77.299-34.606,77.299-77.297C348.301,432.431,313.701,397.826,271.001,397.826z M271.001,520.838
			c-25.245,0-45.711-20.474-45.711-45.714c0-25.245,20.466-45.713,45.711-45.713c25.255,0,45.716,20.468,45.716,45.713
			C316.717,500.364,296.256,520.838,271.001,520.838z"/>
	</g>
</g>
</svg>
