<svg width="131" height="38" viewBox="0 0 131 38" fill="none" xmlns="http://www.w3.org/2000/svg">
<path d="M43.6567 12.7114H44.8047L40.6187 2.92542L36.3207 12.7114H37.4687L38.5887 10.0794H42.5647L43.6567 12.7114ZM38.9947 9.09943L40.5907 5.36143L42.1587 9.09943H38.9947ZM44.4353 6.90143L47.2913 13.0894L50.1473 6.90143H49.0273L47.2913 10.8214L45.5553 6.90143H44.4353ZM55.3809 7.72743C55.1149 7.37743 54.5129 6.76143 53.3929 6.76143C51.9089 6.76143 50.5649 7.79743 50.5649 9.79943C50.5649 11.8434 51.9229 12.8794 53.3929 12.8794C54.4149 12.8794 55.0449 12.3334 55.3809 11.8994V12.7114H56.3889V6.90143H55.3809V7.72743ZM53.5049 7.65743C54.4009 7.65743 55.4369 8.31543 55.4369 9.81343C55.4369 10.9614 54.7369 11.9834 53.5049 11.9834C52.3009 11.9834 51.6009 11.0454 51.6009 9.79943C51.6009 8.38543 52.5109 7.65743 53.5049 7.65743ZM58.018 6.90143V12.7114H59.026V6.90143H58.018ZM57.808 4.70343C57.808 5.09543 58.13 5.41743 58.522 5.41743C58.914 5.41743 59.236 5.09543 59.236 4.70343C59.236 4.31143 58.914 3.98943 58.522 3.98943C58.13 3.98943 57.808 4.31143 57.808 4.70343ZM60.6501 2.50543V12.7114H61.6581V2.50543H60.6501ZM67.7342 7.72743C67.4682 7.37743 66.8662 6.76143 65.7462 6.76143C64.2622 6.76143 62.9182 7.79743 62.9182 9.79943C62.9182 11.8434 64.2762 12.8794 65.7462 12.8794C66.7682 12.8794 67.3982 12.3334 67.7342 11.8994V12.7114H68.7422V6.90143H67.7342V7.72743ZM65.8582 7.65743C66.7542 7.65743 67.7902 8.31543 67.7902 9.81343C67.7902 10.9614 67.0902 11.9834 65.8582 11.9834C64.6542 11.9834 63.9542 11.0454 63.9542 9.79943C63.9542 8.38543 64.8642 7.65743 65.8582 7.65743ZM71.3794 11.8994C71.8134 12.4594 72.4714 12.8794 73.4094 12.8794C75.1734 12.8794 76.1954 11.4374 76.1954 9.84143C76.1954 8.27343 75.1874 6.76143 73.3674 6.76143C72.9474 6.76143 72.0654 6.85943 71.3794 7.71343V2.50543H70.3714V12.7114H71.3794V11.8994ZM73.2694 11.9834C72.0794 11.9834 71.3234 11.0174 71.3234 9.82743C71.3234 8.42743 72.3174 7.65743 73.2554 7.65743C74.1934 7.65743 75.1594 8.41343 75.1594 9.84143C75.1594 11.0034 74.4454 11.9834 73.2694 11.9834ZM77.4605 2.50543V12.7114H78.4685V2.50543H77.4605ZM84.4046 10.7654C84.2786 11.0454 84.0686 11.3394 83.8026 11.5634C83.4666 11.8434 83.0886 11.9834 82.6126 11.9834C81.6046 11.9834 80.7786 11.2134 80.7646 10.0094H85.2866C85.3146 9.23943 85.1046 8.34343 84.7406 7.82543C84.3906 7.32143 83.6766 6.76143 82.5426 6.76143C80.7926 6.76143 79.7286 8.10543 79.7286 9.84143C79.7286 11.9974 81.1986 12.8794 82.5986 12.8794C83.3406 12.8794 83.9986 12.6414 84.5306 12.1654C84.8246 11.8994 85.0766 11.5494 85.2446 11.2274L84.4046 10.7654ZM80.8346 9.16943C80.9886 8.30143 81.6886 7.65743 82.5426 7.65743C83.3966 7.65743 84.0826 8.25943 84.2506 9.16943H80.8346ZM92.2564 12.8794C94.0204 12.8794 95.3364 11.5914 95.3364 9.82743C95.3364 8.06343 94.0344 6.76143 92.2564 6.76143C90.4784 6.76143 89.1764 8.06343 89.1764 9.82743C89.1764 11.5914 90.4924 12.8794 92.2564 12.8794ZM92.2564 7.65743C93.3204 7.65743 94.3004 8.39943 94.3004 9.82743C94.3004 11.2414 93.3064 11.9834 92.2564 11.9834C91.2204 11.9834 90.2124 11.2554 90.2124 9.82743C90.2124 8.41343 91.1924 7.65743 92.2564 7.65743ZM96.6022 12.7114H97.6102V9.67343C97.6102 9.25343 97.6382 8.56743 98.0302 8.10543C98.3242 7.75543 98.7022 7.65743 99.0522 7.65743C99.5002 7.65743 99.8082 7.82543 100.004 8.07743C100.242 8.38543 100.27 8.79143 100.27 9.14143V12.7114H101.278V9.11343C101.278 8.46943 101.236 7.99343 100.942 7.55943C100.592 7.04143 99.9622 6.76143 99.2762 6.76143C98.3102 6.76143 97.7922 7.33543 97.6102 7.57343V6.90143H96.6022V12.7114ZM45.7487 31.7114H48.2687L43.2467 19.7054H41.4107L36.2447 31.7114H38.7827L39.8447 29.1914H44.6867L45.7487 31.7114ZM40.5827 27.2834L42.2927 22.9634L44.0027 27.2834H40.5827ZM51.1825 30.7034C52.0465 31.8734 53.1445 31.9634 53.6845 31.9634C54.8365 31.9634 55.7365 31.5134 56.3305 30.9554C56.7805 30.5234 57.5545 29.5694 57.5545 27.8054C57.5545 26.2574 56.9605 25.2854 56.3845 24.7094C55.5025 23.8274 54.4045 23.6654 53.7205 23.6654C52.2805 23.6654 51.5245 24.4394 51.1825 24.9254V23.9174H48.9865V35.8334H51.1825V30.7034ZM53.1265 25.6094C53.6485 25.6094 54.2245 25.8074 54.6205 26.1674C55.0525 26.5814 55.2865 27.2294 55.2865 27.8054C55.2865 28.3814 55.0705 29.0294 54.6025 29.4614C54.3145 29.7314 53.8465 30.0194 53.1265 30.0194C52.4425 30.0194 51.9745 29.7494 51.6865 29.4974C51.2545 29.1194 50.9665 28.5254 50.9665 27.8054C50.9665 27.0854 51.2185 26.5454 51.7045 26.1314C52.1005 25.7714 52.5505 25.6094 53.1265 25.6094ZM61.0881 30.7034C61.9521 31.8734 63.0501 31.9634 63.5901 31.9634C64.7421 31.9634 65.6421 31.5134 66.2361 30.9554C66.6861 30.5234 67.4601 29.5694 67.4601 27.8054C67.4601 26.2574 66.8661 25.2854 66.2901 24.7094C65.4081 23.8274 64.3101 23.6654 63.6261 23.6654C62.1861 23.6654 61.4301 24.4394 61.0881 24.9254V23.9174H58.8921V35.8334H61.0881V30.7034ZM63.0321 25.6094C63.5541 25.6094 64.1301 25.8074 64.5261 26.1674C64.9581 26.5814 65.1921 27.2294 65.1921 27.8054C65.1921 28.3814 64.9761 29.0294 64.5081 29.4614C64.2201 29.7314 63.7521 30.0194 63.0321 30.0194C62.3481 30.0194 61.8801 29.7494 61.5921 29.4974C61.1601 29.1194 60.8721 28.5254 60.8721 27.8054C60.8721 27.0854 61.1241 26.5454 61.6101 26.1314C62.0061 25.7714 62.4561 25.6094 63.0321 25.6094ZM80.0909 20.8394C78.8669 19.5794 77.4449 19.4354 76.6889 19.4354C74.0249 19.4354 72.8369 21.1994 72.8369 22.9634C72.8369 24.1874 73.3949 24.8534 73.7909 25.1954C74.4029 25.7354 75.1589 26.0234 75.7889 26.2394C76.4729 26.4734 77.1929 26.7074 77.6429 27.1214C77.9669 27.4274 78.1109 27.7694 78.1109 28.2014C78.1109 29.2094 77.3189 29.8574 76.2569 29.8574C75.4109 29.8574 74.3129 29.4254 73.7369 28.2554L72.2069 29.7134C72.8369 30.6314 74.1329 31.9814 76.3469 31.9814C78.8309 31.9814 80.5229 30.3794 80.5229 28.0394C80.5229 26.8154 80.0369 26.0054 79.4969 25.5194C78.8849 24.9614 78.0029 24.6374 77.0669 24.3134C76.3109 24.0434 75.9149 23.8994 75.6269 23.6294C75.3389 23.3774 75.2489 23.1074 75.2489 22.8194C75.2489 22.2074 75.6449 21.4154 76.9049 21.4154C77.3369 21.4154 78.1649 21.5054 78.8669 22.4414L80.0909 20.8394ZM85.6021 25.7894V23.9174H84.0901V21.2534H81.8941V23.9174H81.0301V25.7894H81.8941V31.7114H84.0901V25.7894H85.6021ZM90.4537 23.6654C88.9777 23.6654 87.9697 24.1514 87.3037 24.7634C86.5297 25.4654 85.9897 26.5454 85.9897 27.8234C85.9897 29.0834 86.5297 30.1634 87.3037 30.8654C87.9697 31.4774 88.9777 31.9634 90.4537 31.9634C91.9297 31.9634 92.9377 31.4774 93.6037 30.8654C94.3777 30.1634 94.9177 29.0834 94.9177 27.8234C94.9177 26.5454 94.3777 25.4654 93.6037 24.7634C92.9377 24.1514 91.9297 23.6654 90.4537 23.6654ZM90.4537 30.0194C89.1757 30.0194 88.2577 29.0114 88.2577 27.8234C88.2577 26.5994 89.1937 25.6094 90.4537 25.6094C91.7137 25.6094 92.6497 26.5994 92.6497 27.8234C92.6497 29.0114 91.7317 30.0194 90.4537 30.0194ZM96.2562 31.7114H98.4522V27.9674C98.4522 27.4274 98.4702 26.7614 98.8842 26.2394C99.3162 25.6994 99.9282 25.6094 100.342 25.6094C100.792 25.6094 101.08 25.6994 101.368 25.8974L101.656 23.8454C101.404 23.7554 101.098 23.6654 100.72 23.6654C100.198 23.6654 99.7662 23.7914 99.4242 24.0074C99.2622 24.0974 98.7942 24.4214 98.4522 25.0874V23.9174H96.2562V31.7114ZM107.63 29.2094C107.27 29.8394 106.64 30.2354 105.812 30.2354C104.966 30.2354 104.48 29.8214 104.246 29.4974C103.994 29.1554 103.868 28.6514 103.868 28.1834H109.7V28.0034C109.7 27.1574 109.592 25.9334 108.764 24.9434C108.224 24.2954 107.306 23.6654 105.722 23.6654C104.786 23.6654 103.706 23.8634 102.788 24.7634C102.23 25.3214 101.6 26.2754 101.6 27.8234C101.6 29.0474 101.96 30.0554 102.824 30.8654C103.598 31.6034 104.552 31.9634 105.812 31.9634C108.53 31.9634 109.412 30.1094 109.646 29.5334L107.63 29.2094ZM103.94 26.7794C104.12 25.7354 104.966 25.2134 105.776 25.2134C106.586 25.2134 107.45 25.7174 107.63 26.7794H103.94Z" fill="#949494"/>
<path d="M1.39568 12.4488C-0.983669 16.2689 0.52893 22.0662 3.16011 25.5812C4.47348 27.3386 5.80319 28.9161 7.62445 28.9161C7.65878 28.9161 7.6932 28.9155 7.72845 28.9142C8.58413 28.8826 9.20247 28.6389 9.80033 28.4033C10.4716 28.1387 11.1658 27.865 12.2546 27.865C13.2905 27.865 13.9516 28.1298 14.5909 28.3857C15.2209 28.6379 15.8699 28.8988 16.8289 28.8822C18.8804 28.8469 20.1399 27.1446 21.2512 25.643C22.4109 24.075 22.9926 22.5527 23.1888 21.971L23.1968 21.9478C23.2342 21.8444 23.1814 21.7316 23.0742 21.6861C23.0713 21.6848 23.0604 21.6806 23.0574 21.6794C22.6961 21.5427 19.5271 20.242 19.4938 16.6969C19.4629 13.8167 21.8711 12.2914 22.3541 12.015L22.3766 12.002C22.4289 11.9708 22.4654 11.9214 22.4778 11.8649C22.4901 11.8084 22.4772 11.7497 22.4421 11.7022C20.7799 9.45157 18.2321 9.11237 17.2064 9.07156C17.0575 9.05782 16.9039 9.0509 16.7496 9.0509C15.5448 9.0509 14.3907 9.47189 13.4635 9.81015C12.8235 10.0437 12.2707 10.2453 11.8894 10.2453C11.4609 10.2453 10.905 10.0412 10.2612 9.80486C9.40022 9.48871 8.4244 9.13047 7.39136 9.13047C7.36672 9.13047 7.34245 9.13073 7.31855 9.13116C4.91659 9.16386 2.64696 10.4353 1.39568 12.4488Z" fill="#949494"/>
<path d="M17.2086 2.71159C15.7541 2.7664 14.0092 3.5948 12.9663 4.725C12.08 5.67497 11.2142 7.25886 11.4423 8.85538C11.4566 8.95527 11.5444 9.03236 11.653 9.04013C11.7512 9.04722 11.8514 9.0508 11.9513 9.05089C13.3735 9.05089 14.9078 8.32289 15.9556 7.15069C17.0584 5.91291 17.616 4.32442 17.4473 2.90155C17.4341 2.79005 17.328 2.70724 17.2086 2.71159Z" fill="#949494"/>
</svg>
