<svg width="148" height="38" viewBox="0 0 148 38" fill="none" xmlns="http://www.w3.org/2000/svg">
<path d="M44.2397 12.1411H45.3877L41.2017 2.35511L36.9037 12.1411H38.0517L39.1717 9.50911H43.1477L44.2397 12.1411ZM39.5777 8.52911L41.1737 4.79111L42.7417 8.52911H39.5777ZM45.0183 6.33111L47.8743 12.5191L50.7303 6.33111H49.6103L47.8743 10.2511L46.1383 6.33111H45.0183ZM55.9639 7.15711C55.6979 6.80711 55.0959 6.19111 53.9759 6.19111C52.4919 6.19111 51.1479 7.22711 51.1479 9.22911C51.1479 11.2731 52.5059 12.3091 53.9759 12.3091C54.9979 12.3091 55.6279 11.7631 55.9639 11.3291V12.1411H56.9719V6.33111H55.9639V7.15711ZM54.0879 7.08711C54.9839 7.08711 56.0199 7.74511 56.0199 9.24311C56.0199 10.3911 55.3199 11.4131 54.0879 11.4131C52.8839 11.4131 52.1839 10.4751 52.1839 9.22911C52.1839 7.81511 53.0939 7.08711 54.0879 7.08711ZM58.601 6.33111V12.1411H59.609V6.33111H58.601ZM58.391 4.13311C58.391 4.52511 58.713 4.84711 59.105 4.84711C59.497 4.84711 59.819 4.52511 59.819 4.13311C59.819 3.74111 59.497 3.41911 59.105 3.41911C58.713 3.41911 58.391 3.74111 58.391 4.13311ZM61.2331 1.93511V12.1411H62.2411V1.93511H61.2331ZM68.3172 7.15711C68.0512 6.80711 67.4492 6.19111 66.3292 6.19111C64.8452 6.19111 63.5012 7.22711 63.5012 9.22911C63.5012 11.2731 64.8592 12.3091 66.3292 12.3091C67.3512 12.3091 67.9812 11.7631 68.3172 11.3291V12.1411H69.3252V6.33111H68.3172V7.15711ZM66.4412 7.08711C67.3372 7.08711 68.3732 7.74511 68.3732 9.24311C68.3732 10.3911 67.6732 11.4131 66.4412 11.4131C65.2372 11.4131 64.5372 10.4751 64.5372 9.22911C64.5372 7.81511 65.4472 7.08711 66.4412 7.08711ZM71.9624 11.3291C72.3964 11.8891 73.0544 12.3091 73.9924 12.3091C75.7564 12.3091 76.7784 10.8671 76.7784 9.27111C76.7784 7.70311 75.7704 6.19111 73.9504 6.19111C73.5304 6.19111 72.6484 6.28911 71.9624 7.14311V1.93511H70.9544V12.1411H71.9624V11.3291ZM73.8524 11.4131C72.6624 11.4131 71.9064 10.4471 71.9064 9.25711C71.9064 7.85711 72.9004 7.08711 73.8384 7.08711C74.7764 7.08711 75.7424 7.84311 75.7424 9.27111C75.7424 10.4331 75.0284 11.4131 73.8524 11.4131ZM78.0435 1.93511V12.1411H79.0515V1.93511H78.0435ZM84.9876 10.1951C84.8616 10.4751 84.6516 10.7691 84.3856 10.9931C84.0496 11.2731 83.6716 11.4131 83.1956 11.4131C82.1876 11.4131 81.3616 10.6431 81.3476 9.43911H85.8696C85.8976 8.66911 85.6876 7.77311 85.3236 7.25511C84.9736 6.75111 84.2596 6.19111 83.1256 6.19111C81.3756 6.19111 80.3116 7.53511 80.3116 9.27111C80.3116 11.4271 81.7816 12.3091 83.1816 12.3091C83.9236 12.3091 84.5816 12.0711 85.1136 11.5951C85.4076 11.3291 85.6596 10.9791 85.8276 10.6571L84.9876 10.1951ZM81.4176 8.59911C81.5716 7.73111 82.2716 7.08711 83.1256 7.08711C83.9796 7.08711 84.6656 7.68911 84.8336 8.59911H81.4176ZM92.8394 12.3091C94.6034 12.3091 95.9194 11.0211 95.9194 9.25711C95.9194 7.49311 94.6174 6.19111 92.8394 6.19111C91.0614 6.19111 89.7594 7.49311 89.7594 9.25711C89.7594 11.0211 91.0754 12.3091 92.8394 12.3091ZM92.8394 7.08711C93.9034 7.08711 94.8834 7.82911 94.8834 9.25711C94.8834 10.6711 93.8894 11.4131 92.8394 11.4131C91.8034 11.4131 90.7954 10.6851 90.7954 9.25711C90.7954 7.84311 91.7754 7.08711 92.8394 7.08711ZM97.1852 12.1411H98.1932V9.10311C98.1932 8.68311 98.2212 7.99711 98.6132 7.53511C98.9072 7.18511 99.2852 7.08711 99.6352 7.08711C100.083 7.08711 100.391 7.25511 100.587 7.50711C100.825 7.81511 100.853 8.22111 100.853 8.57111V12.1411H101.861V8.54311C101.861 7.89911 101.819 7.42311 101.525 6.98911C101.175 6.47111 100.545 6.19111 99.8592 6.19111C98.8932 6.19111 98.3752 6.76511 98.1932 7.00311V6.33111H97.1852V12.1411ZM44.2437 26.7311H47.3397C47.1417 27.5951 46.6737 28.2071 46.2057 28.5671C45.5397 29.0711 44.6397 29.2871 43.8477 29.2871C42.5697 29.2871 41.7237 28.7831 41.1837 28.2611C40.6797 27.7751 39.9957 26.8211 39.9957 25.2191C39.9957 23.8691 40.5177 22.7171 41.2017 22.0511C41.9397 21.3311 43.0197 20.9891 43.9737 20.9891C44.5317 20.9891 45.1617 21.1151 45.6657 21.3671C46.0437 21.5651 46.6557 21.9791 47.0697 22.7891L49.1037 21.6911C48.4737 20.6111 47.6277 19.8911 46.8537 19.4951C45.9357 19.0091 44.9817 18.8651 44.0817 18.8651C41.7597 18.8651 40.2477 19.7831 39.3477 20.7011C38.6277 21.4211 37.5837 22.8431 37.5837 25.1651C37.5837 27.8651 38.9517 29.3771 39.3657 29.7911C40.6797 31.1051 42.2277 31.4111 43.7217 31.4111C45.2157 31.4111 46.7457 31.0691 47.9877 29.8271C49.6437 28.1891 49.7517 25.6691 49.7517 24.8591V24.7151H44.2437V26.7311ZM55.2898 23.0951C53.8138 23.0951 52.8058 23.5811 52.1398 24.1931C51.3658 24.8951 50.8258 25.9751 50.8258 27.2531C50.8258 28.5131 51.3658 29.5931 52.1398 30.2951C52.8058 30.9071 53.8138 31.3931 55.2898 31.3931C56.7658 31.3931 57.7738 30.9071 58.4398 30.2951C59.2138 29.5931 59.7538 28.5131 59.7538 27.2531C59.7538 25.9751 59.2138 24.8951 58.4398 24.1931C57.7738 23.5811 56.7658 23.0951 55.2898 23.0951ZM55.2898 29.4491C54.0118 29.4491 53.0938 28.4411 53.0938 27.2531C53.0938 26.0291 54.0298 25.0391 55.2898 25.0391C56.5498 25.0391 57.4858 26.0291 57.4858 27.2531C57.4858 28.4411 56.5678 29.4491 55.2898 29.4491ZM65.1603 23.0951C63.6843 23.0951 62.6763 23.5811 62.0103 24.1931C61.2363 24.8951 60.6963 25.9751 60.6963 27.2531C60.6963 28.5131 61.2363 29.5931 62.0103 30.2951C62.6763 30.9071 63.6843 31.3931 65.1603 31.3931C66.6363 31.3931 67.6443 30.9071 68.3103 30.2951C69.0843 29.5931 69.6243 28.5131 69.6243 27.2531C69.6243 25.9751 69.0843 24.8951 68.3103 24.1931C67.6443 23.5811 66.6363 23.0951 65.1603 23.0951ZM65.1603 29.4491C63.8823 29.4491 62.9643 28.4411 62.9643 27.2531C62.9643 26.0291 63.9003 25.0391 65.1603 25.0391C66.4203 25.0391 67.3563 26.0291 67.3563 27.2531C67.3563 28.4411 66.4383 29.4491 65.1603 29.4491ZM76.9028 24.3551C76.5968 23.8871 75.9128 23.0951 74.4548 23.0951C73.4108 23.0951 72.4568 23.4731 71.7728 24.1391C71.0168 24.8771 70.5668 26.0111 70.5668 27.2351C70.5668 28.7471 71.2328 29.7551 71.8088 30.3311C72.5648 31.0691 73.4648 31.3931 74.5088 31.3931C75.1028 31.3931 76.1468 31.2491 76.9028 30.0971V31.1951C76.9028 31.8251 76.8488 32.4371 76.3448 32.9231C76.0568 33.1931 75.6428 33.4091 75.0128 33.4091C74.7068 33.4091 74.1128 33.3911 73.6808 32.9951C73.4288 32.7791 73.2308 32.4191 73.1408 32.0591H70.7648C70.9448 32.9411 71.4128 33.8591 72.0248 34.3811C72.5288 34.8311 73.4288 35.2811 74.9408 35.2811C76.5428 35.2811 77.4788 34.7231 78.0188 34.1831C78.9908 33.2111 79.0988 31.9691 79.0988 30.7811V23.3471H76.9028V24.3551ZM74.9948 25.0391C75.5888 25.0391 76.0928 25.2191 76.5248 25.6691C76.8308 25.9931 77.1548 26.4971 77.1548 27.2351C77.1548 27.8651 76.9028 28.4951 76.4528 28.9091C76.0748 29.2511 75.5348 29.4491 74.9948 29.4491C74.4728 29.4491 73.8788 29.2691 73.4108 28.7651C73.0868 28.4231 72.8348 27.9191 72.8348 27.2351C72.8348 26.4251 73.1768 25.9031 73.5368 25.5791C73.8068 25.3271 74.2928 25.0391 74.9948 25.0391ZM80.8332 18.0191V31.1411H83.0292V18.0191H80.8332ZM90.3963 28.6391C90.0363 29.2691 89.4063 29.6651 88.5783 29.6651C87.7323 29.6651 87.2463 29.2511 87.0123 28.9271C86.7603 28.5851 86.6343 28.0811 86.6343 27.6131H92.4663V27.4331C92.4663 26.5871 92.3583 25.3631 91.5303 24.3731C90.9903 23.7251 90.0723 23.0951 88.4883 23.0951C87.5523 23.0951 86.4723 23.2931 85.5543 24.1931C84.9963 24.7511 84.3663 25.7051 84.3663 27.2531C84.3663 28.4771 84.7263 29.4851 85.5903 30.2951C86.3643 31.0331 87.3183 31.3931 88.5783 31.3931C91.2963 31.3931 92.1783 29.5391 92.4123 28.9631L90.3963 28.6391ZM86.7063 26.2091C86.8863 25.1651 87.7323 24.6431 88.5423 24.6431C89.3523 24.6431 90.2163 25.1471 90.3963 26.2091H86.7063ZM97.9718 19.1351V31.1411H100.312V26.6951H101.824C103.21 26.6951 104.2 26.2991 104.866 25.6331C105.784 24.7151 105.856 23.4191 105.856 22.9511C105.856 22.0871 105.604 20.9171 104.632 20.0531C103.75 19.2791 102.814 19.1351 101.464 19.1351H97.9718ZM100.312 21.1511H101.122C101.68 21.1511 102.292 21.1871 102.778 21.5291C103.12 21.7811 103.444 22.2311 103.444 22.8971C103.444 23.4191 103.228 23.9591 102.796 24.3011C102.292 24.6791 101.716 24.6791 101.266 24.6791H100.312V21.1511ZM106.903 18.0191V31.1411H109.099V18.0191H106.903ZM116.808 24.3551C116.07 23.2031 114.9 23.0951 114.306 23.0951C112.002 23.0951 110.436 24.9311 110.436 27.2351C110.436 29.5211 112.02 31.3931 114.414 31.3931C114.972 31.3931 116.016 31.2671 116.808 30.1331V31.1411H119.004V23.3471H116.808V24.3551ZM114.864 25.0391C116.124 25.0391 117.024 25.9931 117.024 27.2351C117.024 28.4771 116.124 29.4491 114.864 29.4491C113.604 29.4491 112.704 28.4771 112.704 27.2351C112.704 25.9931 113.604 25.0391 114.864 25.0391ZM120.576 35.2631H123.06L129.342 23.3471H126.858L124.698 27.7751L122.286 23.3471H119.73L123.438 29.9711L120.576 35.2631Z" fill="#949494"/>
<path d="M17.4875 19.9286L14.7004 17.4384L4.46875 26.6066L17.4875 19.9286Z" fill="#949494"/>
<path d="M17.4875 13.1496L4.46875 6.47156L14.7004 15.6399L17.4875 13.1496Z" fill="#949494"/>
<path d="M21.5672 17.7974C22.4016 17.2054 22.4016 15.871 21.5117 15.2789L18.781 13.8668L15.7341 16.5391L18.781 19.2113L21.5672 17.7974Z" fill="#949494"/>
<path d="M1.79731 27.141L13.6948 16.5349L1.79731 5.93326V5.93237C1.19533 6.21427 0.791748 6.7277 0.791748 7.39488V25.6785C0.791748 26.3457 1.19533 26.8591 1.79731 27.141Z" fill="#949494"/>
</svg>
