<?xml version="1.0" encoding="utf-8"?>
<!-- Generator: Adobe Illustrator 16.0.0, SVG Export Plug-In . SVG Version: 6.00 Build 0)  -->
<!DOCTYPE svg PUBLIC "-//W3C//DTD SVG 1.1//EN" "http://www.w3.org/Graphics/SVG/1.1/DTD/svg11.dtd">
<svg version="1.1" id="Layer_1" xmlns="http://www.w3.org/2000/svg" xmlns:xlink="http://www.w3.org/1999/xlink" x="0px" y="0px"
	 width="116.753px" height="32.833px" viewBox="0 0 116.753 32.833" enable-background="new 0 0 116.753 32.833"
	 xml:space="preserve">
<g>
	<g>
		
			<linearGradient id="SVGID_1_" gradientUnits="userSpaceOnUse" x1="181.4858" y1="403.1362" x2="199.7554" y2="403.1362" gradientTransform="matrix(1 0 0 -1 -97.7197 419.9424)">
			<stop  offset="0" style="stop-color:#C63130"/>
			<stop  offset="1" style="stop-color:#EE422E"/>
		</linearGradient>
		<path fill="url(#SVGID_1_)" d="M88.832,2.663l12.574,12.268c0.756,0.935,0.92,2.851,0,3.767L88.832,30.833
			c-1.131,1.136-2.635,1.408-3.756,0.27l-0.47-0.447c-0.983-1-1.175-2.094-0.188-3.004c3.104-2.955,6.242-5.949,9.34-8.951
			c1.033-1.045,1.033-2.77,0-3.768c-3.098-3.046-6.234-6.046-9.34-9.084c-0.985-0.82-0.795-2.001,0.188-2.914l0.47-0.45
			C86.197,1.39,87.701,1.665,88.832,2.663L88.832,2.663z"/>
	</g>
	<g>
		
			<linearGradient id="SVGID_2_" gradientUnits="userSpaceOnUse" x1="870.0513" y1="117.1763" x2="882.7788" y2="117.1763" gradientTransform="matrix(0.0924 0.9345 0.9323 0.0606 -79.8433 -818.9318)">
			<stop  offset="0" style="stop-color:#C63130"/>
			<stop  offset="1" style="stop-color:#EE422E"/>
		</linearGradient>
		<path fill="url(#SVGID_2_)" d="M116.13,2.604c0.908,0.8,0.811,2.186-0.215,3.102l-7.18,6.397c-1.023,0.912-2.598,0.997-3.49,0.196
			l-0.617-0.549c-0.898-0.796-0.811-2.186,0.213-3.098l7.186-6.397c1.028-0.912,2.588-1.001,3.493-0.196L116.13,2.604z"/>
		
			<linearGradient id="SVGID_3_" gradientUnits="userSpaceOnUse" x1="1110.0063" y1="894.0298" x2="1123.7085" y2="894.0298" gradientTransform="matrix(-0.9345 0.0924 -0.0606 0.9323 1208.0587 -910.8638)">
			<stop  offset="0" style="stop-color:#C63130"/>
			<stop  offset="1" style="stop-color:#EE422E"/>
		</linearGradient>
		<path fill="url(#SVGID_3_)" d="M115.15,30.77c-0.872,0.773-2.374,0.691-3.365-0.187l-6.959-6.159
			c-0.984-0.876-1.08-2.215-0.214-2.995l0.587-0.522c0.873-0.776,2.387-0.69,3.381,0.182l6.953,6.162
			c0.984,0.873,1.073,2.214,0.205,2.992L115.15,30.77z"/>
	</g>
</g>
<g>
	<path fill="#111111" d="M63.27,6.528c-0.252,0.58-0.47,1.094-0.694,1.606c-2.509,5.712-5.018,11.424-7.526,17.14
		c-0.068,0.146-0.128,0.295-0.199,0.438c-0.396,0.768-1.013,1.193-1.896,1.184c-0.88-0.013-1.502-0.445-1.86-1.23
		c-0.468-1.023-0.908-2.057-1.358-3.084c-2.265-5.153-4.525-10.311-6.785-15.466c-0.076-0.172-0.184-0.337-0.202-0.527
		c0.126-0.097,0.256-0.055,0.377-0.055c1.196-0.006,2.395,0.015,3.588-0.014c0.376-0.008,0.525,0.139,0.664,0.453
		c1.769,4.059,3.555,8.111,5.333,12.163c0.078,0.179,0.159,0.353,0.237,0.53c0.172-0.086,0.191-0.26,0.254-0.399
		c1.81-4.108,3.614-8.221,5.411-12.338c0.128-0.288,0.256-0.416,0.591-0.409C60.527,6.542,61.851,6.528,63.27,6.528z"/>
	<path fill="#111111" d="M67.936,18.663c4.233,0,8.469,0,12.703,0c0.176,0,0.353,0.005,0.526-0.004
		c1.189-0.065,1.996-0.92,2.002-2.113c0.006-0.494-0.043-0.984-0.121-1.473c-0.86-5.471-6.006-9.435-11.832-8.378
		c-5.406,0.979-8.994,6.117-8.123,11.552c0.861,5.4,5.91,9.156,11.313,8.388c3.474-0.494,6.011-2.354,7.669-5.433
		c0.077-0.149,0.182-0.295,0.188-0.479c-0.15-0.084-0.31-0.042-0.464-0.042c-1.256-0.003-2.514,0.006-3.771-0.01
		c-0.307-0.002-0.521,0.085-0.751,0.303c-3.037,2.918-7.958,1.989-9.729-1.828c-0.063-0.138-0.227-0.48-0.125-0.48
		C67.591,18.663,67.765,18.663,67.936,18.663z M72.789,10.395c2.729-0.078,5.396,1.987,5.92,4.592c-3.77,0-7.539,0-11.309,0
		C67.759,12.694,70.388,10.46,72.789,10.395z"/>
	<path fill="#111111" d="M20.378,15.028c-0.004-1.935,0.143-4.914,0-6.855c-0.1-1.404-1.892-2.175-3.128-1.527
		c-0.358,0.192-0.927,0.606-1.122,0.962c-0.95,1.791-1.961,4.563-2.789,6.395c-0.962,2.136-1.914,4.277-2.858,6.425
		c-0.94-2.147-1.894-4.289-2.857-6.425c-0.83-1.833-1.843-4.604-2.792-6.395c-0.532-1-2.172-1.674-3.053-0.824
		c-1.318,1.276-1.031,4.027-0.992,5.664c0.053,2.45-0.019,4.188,0.002,6.586c0.009,1.127-0.025,1.344-0.025,2.469
		c0,0.795,0.025,3.576,0.425,4.561c0.38,0.938,1.56,0.955,2.367,0.588c1.144-0.516,0.856-1.998,0.868-2.988
		C4.452,21,4.458,18.334,4.449,15.667c0.583,1.299,1.179,2.578,1.79,3.912c0.533,1.166,0.981,2.369,1.533,3.523
		c0.463,0.973,1.04,2.823,2.031,3.081c0.406,0.108,0.927,0.147,1.449-0.063c0.522-0.215,0.803-0.842,1.052-1.323
		c0.685-1.308,0.989-1.992,1.657-3.44c0.271-0.584,0.492-1.188,0.764-1.775c0.703-1.545,1.398-3.018,2.067-4.526
		c-0.011,1.411-0.041,2.815-0.029,4.274c0.012,1.186-0.059,2.371-0.046,3.558c0.015,1.048-0.103,2.367,0.406,3.329
		c0.451,0.854,1.508,0.799,2.31,0.438c1.143-0.516,0.855-1.998,0.866-2.988C20.33,20.741,20.393,17.954,20.378,15.028z"/>
	<path fill="#111111" d="M32.848,6.32c-5.715,0-10.351,4.634-10.351,10.351c0,5.717,4.636,10.353,10.351,10.353
		c5.719,0,10.352-4.636,10.352-10.353C43.199,10.953,38.566,6.32,32.848,6.32z M32.848,22.793c-3.382,0-6.122-2.741-6.122-6.123
		c0-3.381,2.74-6.121,6.122-6.121c3.382,0,6.122,2.74,6.122,6.121S36.229,22.793,32.848,22.793z"/>
</g>
</svg>
