<?xml version="1.0" encoding="utf-8"?>
<!-- Generator: Adobe Illustrator 16.0.0, SVG Export Plug-In . SVG Version: 6.00 Build 0)  -->
<!DOCTYPE svg PUBLIC "-//W3C//DTD SVG 1.1//EN" "http://www.w3.org/Graphics/SVG/1.1/DTD/svg11.dtd">
<svg version="1.1" id="Layer_1" xmlns="http://www.w3.org/2000/svg" xmlns:xlink="http://www.w3.org/1999/xlink" x="0px" y="0px"
	 width="116.753px" height="32.833px" viewBox="0 4.667 116.753 32.833" enable-background="new 0 4.667 116.753 32.833"
	 xml:space="preserve">
<g id="BG">
	<g id="Logo_MoveX">
		<g display="none" opacity="0.7">
			
				<image display="inline" overflow="visible" enable-background="new    " width="3913" height="1246" xlink:href="../643301A3.png"  transform="matrix(0.0321 0 0 0.032 -3.4629 1.8208)">
			</image>
		</g>
		<g>
			<g>
				<g>
					
						<linearGradient id="SVGID_1_" gradientUnits="userSpaceOnUse" x1="173.126" y1="-341.8193" x2="191.3955" y2="-341.8193" gradientTransform="matrix(1 0 0 1 -89.3599 363.0547)">
						<stop  offset="0" style="stop-color:#C63130"/>
						<stop  offset="1" style="stop-color:#EE422E"/>
					</linearGradient>
					<path fill="url(#SVGID_1_)" d="M88.832,7.093l12.574,12.268c0.756,0.935,0.92,2.851,0,3.767L88.832,35.262
						c-1.132,1.136-2.635,1.408-3.757,0.269l-0.469-0.446c-0.984-1.001-1.175-2.095-0.189-3.004c3.105-2.955,6.243-5.95,9.34-8.952
						c1.034-1.044,1.034-2.769,0-3.767c-3.097-3.046-6.234-6.046-9.34-9.084c-0.985-0.82-0.795-2.001,0.189-2.914l0.469-0.45
						C86.197,5.82,87.7,6.095,88.832,7.093L88.832,7.093z"/>
				</g>
				<g>
					
						<linearGradient id="SVGID_2_" gradientUnits="userSpaceOnUse" x1="721.9746" y1="546.8184" x2="734.7021" y2="546.8184" gradientTransform="matrix(0.0924 0.9345 -0.9323 -0.0606 552.8819 -635.8867)">
						<stop  offset="0" style="stop-color:#C63130"/>
						<stop  offset="1" style="stop-color:#EE422E"/>
					</linearGradient>
					<path fill="url(#SVGID_2_)" d="M116.131,7.034c0.908,0.8,0.81,2.186-0.215,3.102l-7.18,6.397
						c-1.023,0.912-2.598,0.997-3.491,0.196l-0.616-0.549c-0.899-0.796-0.811-2.186,0.213-3.098l7.185-6.397
						c1.028-0.912,2.588-1.001,3.493-0.196L116.131,7.034z"/>
					
						<linearGradient id="SVGID_3_" gradientUnits="userSpaceOnUse" x1="1641.9678" y1="-25.2168" x2="1655.6709" y2="-25.2168" gradientTransform="matrix(-0.9345 0.0924 0.0606 -0.9323 1652.5259 -145.5927)">
						<stop  offset="0" style="stop-color:#C63130"/>
						<stop  offset="1" style="stop-color:#EE422E"/>
					</linearGradient>
					<path fill="url(#SVGID_3_)" d="M115.15,35.2c-0.872,0.773-2.374,0.691-3.366-0.187l-6.959-6.159
						c-0.984-0.876-1.08-2.215-0.213-2.995l0.587-0.522c0.873-0.777,2.386-0.691,3.381,0.181l6.952,6.162
						c0.985,0.873,1.074,2.214,0.206,2.993L115.15,35.2z"/>
				</g>
			</g>
			<g>
				<path fill="#FFFFFF" d="M63.27,10.958c-0.252,0.58-0.469,1.094-0.694,1.606c-2.509,5.712-5.018,11.424-7.526,17.139
					c-0.068,0.146-0.128,0.295-0.199,0.438c-0.396,0.767-1.013,1.194-1.896,1.183c-0.88-0.012-1.502-0.444-1.86-1.229
					c-0.468-1.024-0.908-2.058-1.358-3.084c-2.265-5.154-4.525-10.312-6.785-15.467c-0.076-0.172-0.184-0.337-0.202-0.527
					c0.126-0.097,0.256-0.055,0.377-0.055c1.196-0.006,2.395,0.015,3.588-0.014c0.376-0.008,0.525,0.139,0.664,0.453
					c1.769,4.059,3.555,8.111,5.333,12.163c0.078,0.179,0.159,0.353,0.237,0.53c0.172-0.086,0.191-0.259,0.254-0.399
					c1.81-4.108,3.614-8.221,5.411-12.338c0.128-0.288,0.256-0.416,0.591-0.409C60.527,10.971,61.851,10.958,63.27,10.958z"/>
				<path fill="#FFFFFF" d="M67.936,23.093c4.234,0,8.469,0,12.703,0c0.176,0,0.353,0.004,0.526-0.004
					c1.19-0.066,1.997-0.921,2.003-2.114c0.005-0.494-0.044-0.985-0.121-1.473c-0.861-5.471-6.006-9.434-11.832-8.378
					c-5.407,0.979-8.995,6.116-8.124,11.552c0.861,5.4,5.91,9.156,11.314,8.388c3.473-0.494,6.011-2.354,7.669-5.433
					c0.077-0.149,0.182-0.295,0.188-0.479c-0.15-0.084-0.309-0.042-0.463-0.042c-1.256-0.003-2.514,0.005-3.771-0.01
					c-0.307-0.002-0.521,0.085-0.751,0.303c-3.037,2.918-7.958,1.989-9.728-1.828c-0.064-0.138-0.227-0.481-0.125-0.481
					C67.591,23.093,67.765,23.093,67.936,23.093z M72.789,14.824c2.729-0.078,5.395,1.987,5.919,4.593c-3.769,0-7.538,0-11.308,0
					C67.759,17.123,70.388,14.89,72.789,14.824z"/>
				<path fill="#FFFFFF" d="M20.378,19.458c-0.004-1.935,0.143-4.914,0-6.856c-0.1-1.404-1.892-2.175-3.128-1.527
					c-0.358,0.192-0.927,0.606-1.122,0.962c-0.95,1.791-1.961,4.563-2.789,6.395c-0.962,2.136-1.914,4.277-2.858,6.425
					c-0.94-2.147-1.894-4.289-2.857-6.425c-0.83-1.833-1.843-4.604-2.792-6.395c-0.532-1-2.172-1.674-3.053-0.824
					c-1.318,1.276-1.031,4.027-0.992,5.664c0.053,2.449-0.019,4.188,0.002,6.587c0.009,1.126-0.025,1.343-0.025,2.468
					c0,0.795,0.025,3.576,0.425,4.56c0.38,0.939,1.56,0.956,2.367,0.588c1.144-0.515,0.856-1.997,0.868-2.987
					c0.028-2.664,0.034-5.329,0.025-7.997c0.583,1.299,1.179,2.579,1.79,3.913c0.533,1.166,0.981,2.369,1.533,3.523
					c0.463,0.973,1.04,2.823,2.031,3.081c0.406,0.108,0.927,0.147,1.449-0.064c0.522-0.215,0.803-0.842,1.052-1.323
					c0.685-1.307,0.989-1.992,1.657-3.44c0.271-0.584,0.492-1.188,0.764-1.776c0.703-1.545,1.398-3.018,2.067-4.526
					c-0.011,1.411-0.041,2.816-0.029,4.274c0.012,1.186-0.059,2.371-0.046,3.558c0.015,1.048-0.103,2.367,0.406,3.329
					c0.451,0.853,1.508,0.799,2.31,0.437c1.143-0.515,0.855-1.997,0.866-2.988C20.33,25.17,20.393,22.383,20.378,19.458z"/>
				<path fill="#FFFFFF" d="M32.848,10.75c-5.715,0-10.351,4.634-10.351,10.351c0,5.717,4.636,10.352,10.351,10.352
					c5.719,0,10.352-4.635,10.352-10.352C43.199,15.383,38.566,10.75,32.848,10.75z M32.848,27.223
					c-3.382,0-6.122-2.741-6.122-6.123c0-3.381,2.74-6.121,6.122-6.121s6.122,2.74,6.122,6.121
					C38.97,24.481,36.229,27.223,32.848,27.223z"/>
			</g>
		</g>
	</g>
</g>
</svg>
